<svg xmlns="http://www.w3.org/2000/svg" viewBox="0 0 100 100">
  <defs>
    <!-- Gradient matching the website's theme (Blue to Purple) -->
    <linearGradient id="bgGradient" x1="0%" y1="0%" x2="100%" y2="100%">
      <stop offset="0%" style="stop-color:#5e72e4;stop-opacity:1" />
      <stop offset="100%" style="stop-color:#7c3aed;stop-opacity:1" />
    </linearGradient>
    
    <!-- Subtle glow for the nodes -->
    <filter id="glow" x="-50%" y="-50%" width="200%" height="200%">
      <feGaussianBlur stdDeviation="1" result="coloredBlur"/>
      <feMerge>
        <feMergeNode in="coloredBlur"/>
        <feMergeNode in="SourceGraphic"/>
      </feMerge>
    </filter>
  </defs>
  
  <!-- Background: Rounded Square for high visibility -->
  <rect x="0" y="0" width="100" height="100" rx="22" ry="22" fill="url(#bgGradient)" />
  
  <!-- Neural Network Structure (2-3-1 Topology) -->
  <g stroke="#ffffff" stroke-width="5" stroke-linecap="round" fill="#ffffff" filter="url(#glow)">
    <!-- Connections (Lines) -->
    <!-- Input (Left) to Hidden (Center) -->
    <!-- From Input 1 (Top) -->
    <line x1="15" y1="25" x2="50" y2="15" opacity="0.6" />
    <line x1="15" y1="25" x2="50" y2="50" opacity="0.6" />
    <line x1="15" y1="25" x2="50" y2="85" opacity="0.6" />
    
    <!-- From Input 2 (Bottom) -->
    <line x1="15" y1="75" x2="50" y2="15" opacity="0.6" />
    <line x1="15" y1="75" x2="50" y2="50" opacity="0.6" />
    <line x1="15" y1="75" x2="50" y2="85" opacity="0.6" />
    
    <!-- Hidden (Center) to Output (Right) -->
    <line x1="50" y1="15" x2="85" y2="50" opacity="0.8" />
    <line x1="50" y1="50" x2="85" y2="50" opacity="0.8" />
    <line x1="50" y1="85" x2="85" y2="50" opacity="0.8" />
    
    <!-- Nodes (Circles) -->
    <!-- Input Layer (2 Nodes) -->
    <circle cx="15" cy="25" r="6" />
    <circle cx="15" cy="75" r="6" />
    
    <!-- Hidden Layer (3 Nodes) -->
    <circle cx="50" cy="15" r="6" />
    <circle cx="50" cy="50" r="6" />
    <circle cx="50" cy="85" r="6" />
    
    <!-- Output Layer (1 Node) -->
    <circle cx="85" cy="50" r="8" />
  </g>
</svg>
